IKResults
version=1
nRows=33
nColumns=24
inDegrees=yes

Units are S.I. units (second, meters, Newtons, ...)
If the header above contains a line with 'inDegrees', this indicates whether rotational values are in degrees (yes) or radians (no).

endheader
time	pelvis_tilt	pelvis_list	pelvis_rotation	pelvis_tx	pelvis_ty	pelvis_tz	hip_flexion_r	hip_adduction_r	hip_rotation_r	knee_angle_r	ankle_angle_r	subtalar_angle_r	mtp_angle_r	hip_flexion_l	hip_adduction_l	hip_rotation_l	knee_angle_l	ankle_angle_l	subtalar_angle_l	mtp_angle_l	lumbar_extension	lumbar_bending	lumbar_rotation
0.875000	10.744301	1.809924	-180.203405	0.284500	0.676965	-1.209111	55.932151	-23.255201	-16.260324	-79.409524	28.025791	3.018253	0.000000	57.468486	-29.449714	-15.218957	-79.659828	28.734950	14.483159	0.000000	-6.517601	1.141317	1.494805
0.880000	10.794423	1.838322	-180.208427	0.285525	0.672397	-1.209341	56.630680	-23.410450	-16.069457	-80.403115	28.448569	3.104561	0.000000	58.250528	-29.690379	-14.896254	-80.657881	29.131596	14.629876	0.000000	-6.665522	1.172221	1.469271
0.885000	10.839492	1.859279	-180.222468	0.286558	0.667797	-1.209525	57.351527	-23.583111	-15.882045	-81.423448	28.827543	3.178750	0.000000	59.019089	-29.929914	-14.586476	-81.648439	29.545514	14.787791	0.000000	-6.820259	1.163629	1.517976
0.890000	10.880538	1.914453	-180.246325	0.287531	0.663225	-1.209706	58.050873	-23.733959	-15.734437	-82.439925	29.236737	3.230446	0.000000	59.799684	-30.186216	-14.227819	-82.622637	29.917578	14.864471	0.000000	-6.971747	1.217643	1.553181
0.895000	10.933294	1.965992	-180.308867	0.288472	0.658623	-1.209843	58.770474	-23.873032	-15.576366	-83.444481	29.619175	3.303388	0.000000	60.579893	-30.470978	-13.898594	-83.622025	30.313914	14.969203	0.000000	-7.111804	1.281640	1.602465
0.900000	10.968698	2.012753	-180.345454	0.289392	0.654033	-1.210119	59.449389	-24.021824	-15.437039	-84.432792	30.013981	3.412820	0.000000	61.341476	-30.745108	-13.556230	-84.594543	30.693403	15.134918	0.000000	-7.289742	1.375767	1.449860
0.905000	11.054136	2.057608	-180.398220	0.290341	0.649367	-1.210275	60.180422	-24.173839	-15.293131	-85.384486	30.381332	3.486145	0.000000	62.153959	-30.999548	-13.208895	-85.557519	31.068432	15.224776	0.000000	-7.390716	1.433200	1.501032
0.910000	11.043282	2.093247	-180.401011	0.291324	0.644724	-1.210509	60.811338	-24.360859	-15.149351	-86.363900	30.773485	3.629140	0.000000	62.897656	-31.234692	-12.848217	-86.537261	31.423532	15.350912	0.000000	-7.589240	1.357349	1.719120
0.915000	11.068208	2.134200	-180.423490	0.292184	0.640130	-1.210676	61.470606	-24.548227	-15.028990	-87.327252	31.140159	3.748925	0.000000	63.649631	-31.470307	-12.492225	-87.471804	31.782632	15.483326	0.000000	-7.749157	1.389895	1.768344
0.920000	11.083788	2.153620	-180.450145	0.293028	0.635586	-1.210873	62.131252	-24.748861	-14.888056	-88.292323	31.531416	3.880366	0.000000	64.377377	-31.676104	-12.134472	-88.404913	32.133887	15.541873	0.000000	-7.928837	1.417284	1.739190
0.925000	11.126949	2.199657	-180.484545	0.293906	0.630983	-1.210973	62.809088	-24.938640	-14.765130	-89.236398	31.887895	4.073834	0.000000	65.164918	-31.903955	-11.757478	-89.350269	32.482136	15.635720	0.000000	-8.076413	1.414923	1.927351
0.930000	11.138132	2.197406	-180.472823	0.294731	0.626409	-1.211106	63.453429	-25.197247	-14.629998	-90.178342	32.240668	4.252660	0.000000	65.884422	-32.060921	-11.413475	-90.276172	32.830584	15.751228	0.000000	-8.261545	1.419843	1.914321
0.935000	11.153629	2.195284	-180.452974	0.295550	0.621854	-1.211226	64.090979	-25.455086	-14.480325	-91.099535	32.617046	4.456265	0.000000	66.607621	-32.194052	-11.053425	-91.167469	33.134032	15.810892	0.000000	-8.433086	1.431745	1.858740
0.940000	11.183127	2.202158	-180.470816	0.296396	0.617260	-1.211357	64.763373	-25.676005	-14.326161	-92.023537	32.955445	4.628900	0.000000	67.348778	-32.372526	-10.734247	-92.033088	33.537932	15.822669	0.000000	-8.589561	1.430144	1.916004
0.945000	11.226808	2.222959	-180.487195	0.297178	0.612678	-1.211340	65.448318	-25.901651	-14.173683	-92.944354	33.293322	4.800925	0.000000	68.114044	-32.525158	-10.355979	-92.925461	33.823704	15.828712	0.000000	-8.737969	1.430081	2.032629
0.950000	11.233666	2.209118	-180.481277	0.297941	0.608062	-1.211370	66.106801	-26.174886	-14.010020	-93.880937	33.645950	4.966009	0.000000	68.832868	-32.664305	-10.023201	-93.926806	34.129058	15.858609	0.000000	-8.912803	1.402641	2.087943
0.955000	11.274004	2.217390	-180.465607	0.298766	0.603545	-1.211458	66.769193	-26.407447	-13.847490	-94.764921	33.970611	5.117158	0.000000	69.592076	-32.787383	-9.663877	-94.756765	34.439562	15.858246	0.000000	-9.064460	1.458819	2.023814
0.960000	11.287494	2.220694	-180.435507	0.299552	0.598999	-1.211612	67.401617	-26.661101	-13.692796	-95.656580	34.301591	5.291879	0.000000	70.298402	-32.927961	-9.337073	-95.794600	34.927513	16.056376	0.000000	-9.246584	1.458958	2.013409
0.965000	11.353939	2.195402	-180.397498	0.300419	0.594485	-1.211630	68.107350	-26.929398	-13.484011	-96.514203	34.595551	5.497535	0.000000	71.086456	-32.966377	-8.944891	-96.442618	35.001473	16.025865	0.000000	-9.376623	1.403626	2.087816
0.970000	11.362055	2.216111	-180.366370	0.301140	0.589988	-1.211756	68.726409	-27.160958	-13.325891	-97.389289	34.892500	5.667558	0.000000	71.789291	-33.107675	-8.619234	-97.418427	35.457417	16.126208	0.000000	-9.547837	1.445685	2.057342
0.975000	11.419072	2.241852	-180.363154	0.301878	0.585527	-1.211820	69.397691	-27.380561	-13.180502	-98.240921	35.176255	5.799928	0.000000	72.567879	-33.237471	-8.227214	-98.249834	35.704806	16.184025	0.000000	-9.673458	1.516169	2.006058
0.980000	11.450028	2.284650	-180.386621	0.302646	0.581016	-1.211838	70.059547	-27.552842	-13.006577	-99.094491	35.443742	5.920106	0.000000	73.337748	-33.385502	-7.814283	-99.093223	35.961298	16.190425	0.000000	-9.837692	1.503943	2.204999
0.985000	11.478060	2.315824	-180.374619	0.303365	0.576513	-1.211886	70.699314	-27.781184	-12.866160	-99.940389	35.698203	6.051506	0.000000	74.105114	-33.495211	-7.394996	-99.930787	36.178926	16.264617	0.000000	-9.980650	1.587205	2.157371
0.990000	11.528513	2.340102	-180.374521	0.304080	0.572097	-1.211955	71.350830	-27.977872	-12.698142	-100.747035	35.951450	6.220966	0.000000	74.865844	-33.613050	-7.005101	-100.727747	36.414793	16.343055	0.000000	-10.120281	1.595730	2.250360
0.995000	11.544958	2.363973	-180.355158	0.304746	0.567705	-1.212040	71.966909	-28.206416	-12.549113	-101.567869	36.205736	6.369407	0.000000	75.596998	-33.708774	-6.600533	-101.515447	36.645408	16.428640	0.000000	-10.261111	1.654266	2.218346
1.000000	11.589328	2.410172	-180.370572	0.305417	0.563351	-1.212109	72.608113	-28.379299	-12.403626	-102.369397	36.443932	6.507788	0.000000	76.374754	-33.839860	-6.178909	-102.302337	36.850035	16.481734	0.000000	-10.399144	1.673764	2.324627
1.005000	11.587749	2.433121	-180.389418	0.306100	0.559048	-1.212223	73.221819	-28.561730	-12.227924	-103.175337	36.711127	6.621723	0.000000	77.080419	-33.960056	-5.779169	-103.085039	37.079501	16.545992	0.000000	-10.550145	1.713591	2.371816
1.010000	11.629467	2.463983	-180.394844	0.306687	0.554726	-1.212292	73.855766	-28.758739	-12.066178	-103.962198	36.953416	6.774988	0.000000	77.829354	-34.075141	-5.378732	-103.850474	37.279070	16.592167	0.000000	-10.680845	1.753606	2.414264
1.015000	11.651123	2.476421	-180.412297	0.307280	0.550420	-1.212375	74.472962	-28.949496	-11.884912	-104.733150	37.193339	6.937189	0.000000	78.538452	-34.201511	-5.013162	-104.614514	37.489585	16.672287	0.000000	-10.792101	1.785687	2.449003
1.020000	11.667267	2.482450	-180.435210	0.307925	0.546064	-1.212455	75.113394	-29.128783	-11.671519	-105.512103	37.406069	7.109538	0.000000	79.265172	-34.338947	-4.629912	-105.423068	37.691779	16.825982	0.000000	-10.941276	1.783450	2.534784
1.025000	11.678438	2.478487	-180.439780	0.308486	0.541781	-1.212509	75.743960	-29.324160	-11.450920	-106.289460	37.631755	7.250267	0.000000	79.949218	-34.445121	-4.300189	-106.142084	37.863357	16.837624	0.000000	-11.085167	1.781085	2.572017
1.030000	11.694270	2.494587	-180.475988	0.309045	0.537568	-1.212577	76.367894	-29.472530	-11.240483	-107.049662	37.855955	7.374391	0.000000	80.651797	-34.576482	-3.923092	-106.886936	38.048958	16.878186	0.000000	-11.217920	1.790912	2.681311
1.035000	11.698579	2.495229	-180.519138	0.309570	0.533384	-1.212637	76.991732	-29.621001	-11.006684	-107.806277	38.052942	7.508511	0.000000	81.334943	-34.717288	-3.544233	-107.655532	38.231524	16.972758	0.000000	-11.350531	1.760733	2.827723
